<?xml version="1.0" encoding="UTF-8" standalone="no"?>
<svg
   xmlns:dc="http://purl.org/dc/elements/1.1/"
   xmlns:cc="http://creativecommons.org/ns#"
   xmlns:rdf="http://www.w3.org/1999/02/22-rdf-syntax-ns#"
   xmlns:svg="http://www.w3.org/2000/svg"
   xmlns="http://www.w3.org/2000/svg"
   id="svg7"
   version="1.1"
   height="394.908"
   width="1000">
  <defs
     id="defs6" />
  <metadata
     id="metadata11">
    <rdf:RDF>
      <cc:Work
         rdf:about="">
        <dc:format>image/svg+xml</dc:format>
        <dc:type
           rdf:resource="http://purl.org/dc/dcmitype/StillImage" />
        <dc:title></dc:title>
      </cc:Work>
    </rdf:RDF>
  </metadata>
  <path
     id="rect14"
     d="M 0,-850 H 2000 V -50 H 0 Z"
     style="stroke-width:1.13857" />
  <g
     id="g864"
     transform="matrix(0.99941203,0.02267984,-0.02267984,0.99941203,-82.515298,686.1629)">
    <path
       id="rect2577-6-5-0"
       style="fill:#ffffff;fill-opacity:0.6;fill-rule:evenodd;stroke-width:4.97552"
       d="m 870.18026,-706.30227 c -20.75576,0.27324 -41.49952,3.10718 -61.61663,8.29632 -26.23931,6.76836 -51.49029,17.56439 -74.11249,32.39674 -23.20483,15.21423 -43.5486,34.57638 -62.2623,55.32585 -19.17498,21.26072 -36.7336,44.02976 -54.80587,66.46758 -12.2652,15.22784 -24.72587,30.24244 -36.53918,45.69825 -8.04683,10.5282 -15.80855,21.27555 -23.27194,32.22534 12.78101,-8.11254 25.35056,-16.55925 37.65335,-25.3803 l 0.17143,0.23988 c 28.77928,-18.15676 56.90966,-37.35605 84.31147,-57.53136 26.69377,-19.65393 53.08266,-40.5469 83.22588,-55.3944 30.91166,-15.22596 65.18859,-23.60398 99.6585,-24.10042 27.87868,-0.40137 55.63912,4.31637 82.19168,12.50731 19.37622,5.97713 38.53824,13.95864 54.93731,26.36303 18.59413,14.06469 32.71453,33.12581 43.77273,53.34321 8.6763,15.86271 15.7392,32.81803 19.3295,50.70346 1.1494,5.72648 1.8842,11.55254 2.2512,17.40397 0.1869,-0.95199 0.399,-1.89804 0.5771,-2.85114 4.0758,-21.81676 5.9577,-44.04963 5.3137,-66.21047 -0.6634,-22.82702 -4.0873,-45.72305 -13.0444,-66.44473 -14.9915,-34.68135 -45.0246,-61.65354 -79.07772,-78.71781 -23.76902,-11.91082 -49.6961,-19.46185 -76.12372,-22.62628 -7.84992,-0.93982 -15.74507,-1.4972 -23.64905,-1.67413 -2.96398,-0.0664 -5.92535,-0.0731 -8.89052,-0.0401 z m 6.63932,6.1251 c 2.03135,0 4.06464,0.0366 6.09654,0.10297 17.93806,0.56721 35.79496,3.37459 53.08035,8.12489 5.74262,1.57812 11.40401,3.38178 17.0154,5.35375 9.2988,3.26793 18.42402,7.02384 27.31724,11.27316 l -2.13693,4.49096 c -8.73179,-4.17215 -17.6903,-7.87043 -26.82012,-11.07889 -5.50956,-1.93613 -11.0718,-3.68251 -16.69548,-5.22804 -16.92504,-4.65121 -34.39143,-7.41097 -51.91474,-7.9649 -15.88184,-0.50197 -31.82066,0.79721 -47.54949,3.38823 -15.49153,2.55178 -30.77274,6.34938 -45.6525,11.35884 l -1.59986,-4.70808 c 15.13419,-5.09514 30.6961,-8.95778 46.45246,-11.55312 13.99866,-2.30576 28.18767,-3.61495 42.40713,-3.55965 z m 0,11.17601 c 2.03135,0.0117 4.06464,0.048 6.09654,0.11438 17.93806,0.56721 35.77211,3.369 53.05747,8.11918 5.74263,1.57824 11.42689,3.38749 17.03828,5.35946 9.2988,3.26781 18.42402,7.02384 27.31724,11.27313 l -2.13693,4.49099 c -8.73179,-4.17223 -17.6903,-7.87011 -26.82012,-11.07889 -5.50956,-1.93613 -11.08906,-3.70551 -16.7126,-5.25089 -16.92527,-4.65133 -34.37431,-7.388 -51.89762,-7.94205 -15.88184,-0.50197 -31.82066,0.79709 -47.54949,3.38822 -15.49153,2.55167 -30.77274,6.34928 -45.6525,11.35885 l -1.59986,-4.70808 c 15.13419,-5.09517 30.6961,-8.95778 46.45246,-11.55313 13.99866,-2.30566 28.18767,-3.62064 42.40713,-3.56535 z m 0,11.18745 c 2.03135,0.0117 4.06464,0.048 6.09654,0.11438 17.93806,0.56721 35.77211,3.36888 53.05747,8.11918 5.74263,1.57823 11.42689,3.36473 17.03828,5.33661 9.2988,3.26813 18.42402,7.04084 27.31724,11.29028 l -2.13693,4.49669 c -8.73179,-4.17247 -17.6903,-7.87046 -26.82012,-11.07889 -5.50956,-1.93625 -11.08906,-3.70539 -16.7126,-5.25089 -16.92506,-4.65133 -34.37419,-7.39382 -51.89762,-7.94778 -15.88184,-0.50198 -31.82066,0.8027 -47.54949,3.39395 -15.49153,2.55167 -30.77274,6.34916 -45.6525,11.35885 l -1.59986,-4.70811 c 15.13419,-5.09523 30.6961,-8.98075 46.45246,-11.57597 13.99866,-2.30576 28.18767,-3.59777 42.40713,-3.54248 z m -624.15404,36.66489 c -20.21031,-0.0995 -40.43083,2.09232 -60.12533,6.59361 -26.17609,5.98257 -51.64833,16.23561 -72.44984,32.81955 -14.86806,11.85356 -27.20671,26.87773 -35.910649,43.77846 -10.170159,19.74761 -15.303596,42.39744 -12.181618,64.1764 2.290398,15.97814 9.071898,31.29532 19.26663,43.81272 1.242426,-8.75414 3.482097,-17.36763 6.690754,-25.60886 5.120123,-13.15073 12.720103,-25.40917 22.717693,-35.47642 10.59706,-10.6707 23.68603,-18.69536 37.76762,-23.78047 13.85349,-5.0025 28.60936,-7.19083 43.25848,-7.07928 14.63587,0.11175 29.1281,2.49828 43.18992,6.09081 17.40351,4.44634 34.24471,10.76894 50.55488,18.09533 14.99465,6.7354 29.54734,14.31691 43.98984,21.96349 14.40122,7.6247 28.76339,15.35307 42.97279,23.38622 19.84613,11.21992 39.30672,22.9923 58.99405,34.2937 10.87659,6.24372 21.84319,12.34363 32.87667,18.30672 10.30938,-4.84737 20.48905,-9.99245 30.5512,-15.35275 14.01094,-7.46392 27.78355,-15.36711 41.32724,-23.64904 9.59014,-14.57915 19.70887,-28.82313 30.30552,-42.68713 3.41142,-4.46346 6.87322,-8.8778 10.35894,-13.27295 -9.04206,-4.53013 -18.08438,-9.06869 -27.11725,-13.61576 -22.45218,-11.30273 -44.84579,-22.65752 -67.46747,-33.51662 -13.0134,-6.24694 -26.11971,-12.33699 -39.21319,-18.48385 -24.19403,-11.35879 -48.26399,-22.85461 -72.96976,-32.69385 -34.47123,-13.72846 -70.42047,-24.25875 -107.20059,-27.23156 -6.71462,-0.54287 -13.44979,-0.83532 -20.18653,-0.86847 z m 365.95728,141.73427 c -6.86023,4.49324 -13.75728,8.92783 -20.69503,13.30153 -14.46128,16.20118 -29.01655,32.32194 -43.66988,48.34941 -12.32988,13.4863 -24.79936,26.91149 -37.95617,39.71029 31.85447,14.75684 64.41617,27.99811 97.53872,39.63031 49.65409,17.43784 100.63589,31.30787 152.65314,38.61325 29.66511,4.1665 59.67145,6.18367 89.49381,4.57668 29.3949,-1.58409 58.63537,-6.73002 86.37983,-16.34693 12.72583,-4.41118 25.13092,-9.74764 36.88198,-16.23836 3.49236,-1.92908 6.92941,-3.96064 10.30183,-6.09081 3.42458,-26.20009 6.11963,-52.49139 8.05631,-78.84351 1.44302,-19.63316 2.44894,-39.29511 3.06254,-58.97119 -12.65759,8.59304 -26.1151,15.96931 -40.05308,22.2149 -21.74487,9.74361 -44.63235,16.79624 -67.89598,21.68353 -19.21026,4.03583 -38.82852,6.62046 -58.5655,6.56506 -24.75264,-0.0664 -49.22669,-4.29385 -73.10121,-10.08469 -32.91467,-7.98329 -64.97164,-18.9628 -96.63593,-30.61978 -15.33154,-5.64433 -30.59295,-11.46767 -45.79538,-17.44969 z M 92.75029,-391.99106 c 1.954443,4.49344 4.17662,8.87101 6.667907,13.09581 -2.491287,-4.2248 -4.713464,-8.60237 -6.667907,-13.09581 z" />
    <path
       id="rect2577-6-6"
       style="fill:#ffffff;fill-opacity:0.78;fill-rule:evenodd;stroke-width:4.97552"
       d="m 1041.6772,-527.44601 c -9.2759,10.26937 -19.4483,19.73761 -30.4426,28.14003 -1.6154,1.23438 -3.256,2.43236 -4.9024,3.62251 -0.5971,21.13467 -1.6672,42.25593 -3.2168,63.34218 -1.8287,24.88035 -4.35677,49.69308 -7.50783,74.43821 8.01713,-5.47317 15.65123,-11.50532 22.79773,-18.07245 16.9417,-15.56806 31.2831,-34.51814 37.5962,-56.28004 4.834,-16.66389 4.8457,-34.61661 1.3998,-51.78338 -3.0252,-15.0717 -8.6571,-29.59457 -15.7241,-43.40706 z m -462.69608,54.16029 c -9.49594,6.39783 -19.12502,12.59156 -28.88278,18.58097 -0.0775,0.11176 -0.14861,0.22555 -0.22292,0.3371 l -0.16002,-0.0971 c -13.8472,8.48889 -27.93783,16.58803 -42.27572,24.22613 -27.61799,14.71261 -56.20077,27.87205 -86.01417,37.70477 -45.65145,15.05646 -93.74135,22.1243 -141.74566,22.52344 -15.26401,0.12726 -30.6193,-0.43012 -45.84681,-2.48546 -27.46295,-3.70566 -54.15885,-12.32114 -78.88917,-24.72322 -23.13734,-11.60335 -44.60052,-26.51407 -63.530701,-44.16699 l 1.856939,-2.00549 -1.988349,1.87979 c -3.45998,-3.68431 -6.590704,-7.66194 -9.410486,-11.85024 1.390832,7.80207 2.463612,15.56057 4.119575,23.07767 1.953945,8.87002 4.76536,17.58376 7.924929,26.21451 1.226277,3.34964 2.484763,6.65314 3.885307,9.87329 3.732516,8.58134 8.515076,16.71913 14.255706,24.07758 7.56721,9.69973 16.82991,18.0683 26.86585,25.41459 16.28077,11.91737 34.51256,21.1478 53.61745,27.81433 23.0511,8.04353 47.38174,12.39184 71.82701,13.69576 23.62076,1.2598 47.36914,-0.30626 70.70143,-4.3424 35.40897,-6.12519 69.8467,-17.98993 101.52117,-34.96219 25.02561,-15.57757 48.50769,-33.62902 69.98719,-53.81745 15.20928,-14.2951 29.43758,-29.6862 43.60132,-45.17831 9.64864,-10.55339 19.23755,-21.15383 28.80279,-31.77965 z m -420.68888,83.91724 c 11.29177,5.60797 23.01875,10.32591 35.04786,14.10143 14.90832,4.67932 30.29315,7.92405 45.82396,9.65619 15.48954,1.72773 31.13444,1.95565 46.77812,1.49126 13.37033,-0.39692 26.73595,-1.29955 40.03596,-2.72543 l 0.41137,3.84531 c -13.39882,1.43662 -26.85192,2.36521 -40.32163,2.76546 -15.76043,0.46769 -31.59756,0.22321 -47.33236,-1.53128 -15.77734,-1.75955 -31.38992,-5.05024 -46.53814,-9.80472 -12.22264,-3.83636 -24.14012,-8.62048 -35.61355,-14.31855 z m 0,10.08471 c 11.29177,5.60794 23.01875,10.32579 35.04786,14.10143 14.90832,4.67929 30.29315,7.92414 45.82396,9.65616 15.48954,1.72785 31.13444,1.95568 46.77812,1.4913 13.37021,-0.39695 26.73595,-1.29959 40.03596,-2.72544 l 0.41137,3.84532 c -13.39882,1.43658 -26.85192,2.36517 -40.32163,2.76542 -15.76043,0.46772 -31.59756,0.22351 -47.33236,-1.53128 -15.77746,-1.75943 -31.38992,-5.05021 -46.53814,-9.80472 -12.22264,-3.83622 -24.14012,-8.62048 -35.61355,-14.31855 z m 268.85851,47.82373 c -8.22981,3.99616 -16.62196,7.65861 -25.14602,10.98177 8.52406,-3.32313 16.91624,-6.98561 25.14602,-10.98177 z m 318.96204,14.05574 c 6.52389,1.12105 13.06682,2.14699 19.6266,3.06827 -6.55981,-0.92128 -13.10271,-1.94722 -19.6266,-3.06827 z m 42.14431,5.7937 c 7.52728,0.75994 15.07559,1.36275 22.632,1.7827 -7.55641,-0.41995 -15.10475,-1.02276 -22.632,-1.7827 z" />
  </g>
</svg>
